# xmcd
#
# Track frame offsets: 
#        150
#        16620
#        27522
#        39352
#        48002
#        60202
#        72815
#        85122
#        93072
#        104317
#
# Disc length: 1545 seconds
#
# Revision: 7
# Processed by: cddbd v1.5.1PL2 Copyright (c) Steve Scherf et al.
# Submitted via: ExactAudioCopy v0.95b3
#
DISCID=6206070a
DTITLE=Various Artist - Rock 'N Roll's Greatest Hits of All Time (Early '60s)
DTITLE=Vol. 2 [CD1]
DYEAR=1995
DGENRE=Rock
TTITLE0=The Beach Boys - Good Vibrations
TTITLE1=Manfred Mann - Do Wah Diddy
TTITLE2=The Exciters - Tell Him
TTITLE3=The Chiffons - He's So Fine
TTITLE4=Peter and Gordon - World Without Love
TTITLE5=Jay and The Americans - Come A Little Bit Closer
TTITLE6=Jan and Dean - Surf City
TTITLE7=The Swinging Blue Jeans - Hippy, Hippy Shake
TTITLE8=Bobby Vee - Take Good Care Of My Baby
TTITLE9=Gerry and The Pacemakers - Don't Let The Sun Catch You Crying
EXTD=corrected - more info
EXTT0=
EXTT1=
EXTT2=
EXTT3=
EXTT4=
EXTT5=
EXTT6=
EXTT7=
EXTT8=
EXTT9=
PLAYORDER=
